<?xml version="1.0" standalone="no"?><!DOCTYPE svg PUBLIC "-//W3C//DTD SVG 1.1//EN" "http://www.w3.org/Graphics/SVG/1.1/DTD/svg11.dtd"><svg t="1593418187648" class="icon" viewBox="0 0 1024 1024" version="1.1" xmlns="http://www.w3.org/2000/svg" p-id="7632" width="128" height="128" xmlns:xlink="http://www.w3.org/1999/xlink"><defs><style type="text/css"></style></defs><path d="M985.6 422.4L550.4 38.4c-25.6-19.2-64-19.2-83.2 0l-435.2 384c-6.4 12.8-12.8 25.6-12.8 38.4 0 25.6 25.6 51.2 51.2 51.2H128v384c0 70.4 57.6 128 128 128h512c70.4 0 128-57.6 128-128V512h57.6c12.8 0 25.6-6.4 38.4-19.2 6.4-12.8 12.8-25.6 12.8-38.4 0-12.8-6.4-25.6-19.2-32zM448 960v-256h128v256H448z m384-512v448c0 38.4-25.6 64-64 64h-128v-256c0-38.4-25.6-64-64-64H448c-38.4 0-64 25.6-64 64v256H256c-38.4 0-64-25.6-64-64V448H102.4L512 83.2 921.6 448H832z" p-id="7633"></path></svg>