<?xml version="1.0" standalone="no"?><!DOCTYPE svg PUBLIC "-//W3C//DTD SVG 1.1//EN" "http://www.w3.org/Graphics/SVG/1.1/DTD/svg11.dtd"><svg t="1593516438589" class="icon" viewBox="0 0 1024 1024" version="1.1" xmlns="http://www.w3.org/2000/svg" p-id="16446" width="128" height="128" xmlns:xlink="http://www.w3.org/1999/xlink"><defs><style type="text/css"></style></defs><path d="M961.024 408.18139583l-382.976-323.584c-36.352-31.232-90.624-31.232-126.976 0L62.976 408.18139583c-8.192 6.656-13.312 14.848-13.312 26.624 0 17.92 14.848 32.768 32.768 32.76800001 8.192 0 16.384-3.072 21.504-8.192l11.776-9.728v368.12799999c0 74.24 56.32 135.168 126.976 135.16800001h538.112c69.12 0 126.976-60.928 126.976-135.16800001v-368.64l9.728 8.192c6.656 5.12 13.312 8.192 23.04 8.19200001 17.92 0 32.768-14.848 32.768-32.768 1.024-8.192-4.096-18.432-12.288-24.57600001zM445.952 886.90139584V619.63739583c0-17.92 14.848-32.768 32.768-32.768h66.048c17.92 0 32.768 14.848 32.768 32.768v266.75200001c0.512 0.512-131.584 0.512-131.584 0.512z m396.288-69.632c0 37.888-28.16 69.12-62.976 69.12h-135.168V619.63739583c0-54.272-44.544-98.816-98.816-98.816H479.232c-54.272 0-98.816 44.544-98.816 98.816v266.75200001H244.736c-34.816 0-62.976-31.232-62.976-69.12V394.86939584l310.272-259.072c11.776-9.728 29.696-9.728 43.008 0l307.2 257.536v423.936z" p-id="16447"></path></svg>