<svg class="icon" viewBox="0 0 1024 1024" xmlns="http://www.w3.org/2000/svg" width="128" height="128"><defs><style/></defs><path d="M643.584 28.352l1.92.384 1.92.448a500.8 500.8 0 01214.912 124.16 32 32 0 01.512 45.312l-1.6 1.536-1.728 1.408a95.936 95.936 0 0095.168 164.672 32 32 0 0141.728 17.472l.768 2.048.64 2.112c10.24 40.192 15.488 81.792 15.488 124.096 0 42.24-5.184 83.84-15.488 124.096a32 32 0 01-38.912 23.104l-2.112-.64-2.112-.768a96 96 0 00-95.168 164.672 32 32 0 015.696 44.864l-1.408 1.728-1.536 1.6a500.48 500.48 0 01-214.848 124.16A32 32 0 01608 972.608l-.512-2.112-.384-2.176a96 96 0 00-190.208-.064 32 32 0 01-36.032 27.392l-2.176-.384-2.112-.512a500.224 500.224 0 01-214.912-124.16 32 32 0 01-.512-45.248l1.6-1.536 1.728-1.408a95.936 95.936 0 00-95.168-164.672 32 32 0 01-41.728-17.472l-.768-2.048-.64-2.112a502.208 502.208 0 010-248.128A32 32 0 0165.088 364.8l2.112.64 2.112.768a96 96 0 0095.168-164.672 32 32 0 01-5.696-44.864l1.408-1.728 1.536-1.6a500.48 500.48 0 01214.848-124.16A32 32 0 01416 51.392l.512 2.112.384 2.176a96 96 0 00189.632 4.032l.64-4.48a32 32 0 0136.416-26.88zm17.536 72.384a160.128 160.128 0 01-298.24 0 436.544 436.544 0 00-132.416 76.544 160.128 160.128 0 01-149.12 258.24 440.256 440.256 0 000 152.96 160.128 160.128 0 01149.12 258.176A436.224 436.224 0 00362.88 923.2a160.128 160.128 0 01298.24 0 436.544 436.544 0 00132.416-76.48 160.128 160.128 0 01149.12-258.24 440.256 440.256 0 000-152.96 160.128 160.128 0 01-149.12-258.176 436.928 436.928 0 00-132.416-76.608zM512 309.376a202.688 202.688 0 110 405.312 202.688 202.688 0 010-405.376zm0 64a138.688 138.688 0 100 277.312 138.688 138.688 0 000-277.376z"/></svg>