<svg class="icon" viewBox="0 0 1024 1024" xmlns="http://www.w3.org/2000/svg" width="128" height="128"><defs><style/></defs><path d="M318.1 800H128.2V130.2h768.6l-1.2 218.2-60-.3.9-157.9H188.2V740h129.9zm-99 34.7h165v60h-165z"/><path d="M639.8 729.5c-47.8 0-86.8-38.9-86.8-86.8 0-47.8 38.9-86.8 86.8-86.8 47.8 0 86.8 38.9 86.8 86.8s-38.9 86.8-86.8 86.8zm0-123.5c-20.3 0-36.8 16.5-36.8 36.8s16.5 36.8 36.8 36.8 36.8-16.5 36.8-36.8-16.5-36.8-36.8-36.8z"/><path d="M716.8 894.7H563.6v-74.6c-13.5-5.8-26.2-13.2-38.1-22l-64.6 37.5-76.5-133.1 64.3-37.3c-.9-7.5-1.3-15-1.3-22.5 0-7.3.4-14.5 1.2-21.7L384 583.6l76.5-133.1 64.3 37.3c11.8-8.9 24.5-16.3 38-22.2v-74.9H716v74.6c13.5 5.8 26.2 13.2 38.1 22l64.6-37.5L895.3 583 831 620.2c.9 7.5 1.3 15 1.3 22.5 0 7.3-.4 14.5-1.2 21.7l64.6 37.4L819.1 835l-64.3-37.3c-11.8 8.9-24.5 16.3-38 22.2v74.8zm-103.2-50h53.2v-60.2l17.2-5.6c19.1-6.3 36.4-16.4 51.5-30l13.5-12.3 51.8 30 26.7-46.4-51.9-30.1 3.7-17.7c2-9.7 3.1-19.7 3.1-29.6 0-10.2-1.1-20.4-3.2-30.3l-3.8-17.8 51.8-30-26.7-46.4-51.9 30.1-13.6-12.2c-15.1-13.6-32.4-23.6-51.6-29.8l-17.3-5.6v-60h-53.2V501l-17.2 5.6c-19.1 6.3-36.5 16.4-51.5 30L530.7 549l-51.8-30-26.7 46.4 51.9 30.1-3.7 17.7c-2 9.7-3.1 19.7-3.1 29.6 0 10.2 1.1 20.4 3.2 30.3l3.8 17.8-51.8 30 26.7 46.4 51.9-30.1 13.5 12.2c15.1 13.6 32.4 23.6 51.6 29.8l17.3 5.6v59.9z"/></svg>