<?xml version="1.0" standalone="no"?><!DOCTYPE svg PUBLIC "-//W3C//DTD SVG 1.1//EN" "http://www.w3.org/Graphics/SVG/1.1/DTD/svg11.dtd"><svg t="1592449597542" class="icon" viewBox="0 0 1024 1024" version="1.1" xmlns="http://www.w3.org/2000/svg" p-id="4040" xmlns:xlink="http://www.w3.org/1999/xlink" width="128" height="128"><defs><style type="text/css"></style></defs><path d="M643.584 28.352l1.92 0.384 1.92 0.448a500.8 500.8 0 0 1 214.912 124.16 32 32 0 0 1 0.512 45.312l-1.6 1.536-1.728 1.408a95.936 95.936 0 0 0 95.168 164.672 32 32 0 0 1 41.728 17.472l0.768 2.048 0.64 2.112c10.24 40.192 15.488 81.792 15.488 124.096 0 42.24-5.184 83.84-15.488 124.096a32 32 0 0 1-38.912 23.104l-2.112-0.64-2.112-0.768a96 96 0 0 0-95.168 164.672 32 32 0 0 1 5.696 44.864l-1.408 1.728-1.536 1.6a500.48 500.48 0 0 1-214.848 124.16 32 32 0 0 1-39.424-22.208l-0.512-2.112-0.384-2.176a96 96 0 0 0-190.208-0.064 32 32 0 0 1-36.032 27.392l-2.176-0.384-2.112-0.512a500.224 500.224 0 0 1-214.912-124.16 32 32 0 0 1-0.512-45.248l1.6-1.536 1.728-1.408a95.936 95.936 0 0 0-95.168-164.672 32 32 0 0 1-41.728-17.472l-0.768-2.048-0.64-2.112a502.208 502.208 0 0 1 0-248.128 32 32 0 0 1 38.912-23.168l2.112 0.64 2.112 0.768A96 96 0 0 0 164.48 201.536a32 32 0 0 1-5.696-44.864l1.408-1.728 1.536-1.6A500.48 500.48 0 0 1 376.576 29.184 32 32 0 0 1 416 51.392l0.512 2.112 0.384 2.176a96 96 0 0 0 189.632 4.032l0.64-4.48a32 32 0 0 1 36.416-26.88z m17.536 72.384a160.128 160.128 0 0 1-298.24 0A436.544 436.544 0 0 0 230.464 177.28a160.128 160.128 0 0 1-149.12 258.24 440.256 440.256 0 0 0 0 152.96 160.128 160.128 0 0 1 149.12 258.176 436.224 436.224 0 0 0 132.416 76.544 160.128 160.128 0 0 1 298.24 0 436.544 436.544 0 0 0 132.416-76.48 160.128 160.128 0 0 1 149.12-258.24 440.256 440.256 0 0 0 0-152.96 160.128 160.128 0 0 1-149.12-258.176 436.928 436.928 0 0 0-132.416-76.608zM512 309.376a202.688 202.688 0 1 1 0 405.312 202.688 202.688 0 0 1 0-405.376z m0 64a138.688 138.688 0 1 0 0 277.312 138.688 138.688 0 0 0 0-277.376z" p-id="4041"></path></svg>